<svg id="Layer_1" data-name="Layer 1" xmlns="http://www.w3.org/2000/svg" viewBox="0 0 330.67 274"><title>aufntup</title><path d="M57.51,94.63c0,2.17-2.08,9.07-10.89,8.12-13.88-1.51-23.16-.52-36.79-4.39-4-1.14-5.89,1.33-4.61,5.42,0.94,3,3.14,4.58,6,5.56a64.89,64.89,0,0,0,25.1,3.25c6.91-.37,10-0.84,16.62.63,4.06,0.9,4.72,3.79,4.86,6,0.2,3.15-.36,13.18-0.62,16.31-2.11,25.23-5,50.2-2.65,75.5,1.39,15.08,6.23,32.7,13.27,44.16,4.26,6.44,7,9.81,12.76,11.9,6.12,2.21,12.5,1.71,18.67-.32,4.64-1.53,12.36-5.49,13.32-21.71,0.17-2.86.91-5.59,0.13-8.4-0.37-1.34-1-2.53-2.59-2.66s-2.37.89-2.92,2.23c-2.36,5.81-8.81,19.56-15.74,18.53-15.11-2.26-13.54-19.42-17.16-47.13-4.61-35.24-4.32-82-4.26-87.59,0-3.54.88-5.62,4.8-5.17a99.36,99.36,0,0,0,17.12.67c3.3-.19,6.3-0.31,6.57-2.8,0.35-4.23-1.59-8.74-5.77-8.81l-17.9-.31c-4.76-.08-6.48-1.56-6.32-6.38C69,67,65.5,35.5,59.84,20.68,54.47,6.61,41-.82,27.93,4.31,16.8,8.69,13.56,26.68,11.69,35.54c-2.61,14.15,4.73,16,8.92,12.36,4.78-4.09,10.76-13,9.29-23.94a16.26,16.26,0,0,1,.2-4.48c0.74-5,4.37-6.86,9.09-5,7.86,3.11,11,9.75,13.17,17.12C56.19,44.63,57.92,86.26,57.51,94.63Z"/><path d="M191.87,112c-1-1.85-2.38-3.74-4.56-3.14-2.76.76-1.61,3.27-1.22,5.1,4.59,21.52,5.15,43.25,2.7,65-1.13,10-1.84,20.19-6.47,29.58-5.17,10.48-14.41,13.12-24.76,13.57-7.2.31-15.94-6.56-19-14.2-2.84-7.16-15.57-39.68-13.63-94-0.42-2-.43-4.89-3.27-4.9-3.1,0-3.2,2.94-3.55,5.18-3.35,21.08-5.21,42.19-3.16,63.59,1,10.17,2.24,20.22,5.54,29.83,4.11,12,24.39,34.67,44.28,31.06,12.89-1.3,21.4-8.5,27.81-18.66a66.1,66.1,0,0,0,9.67-30.14C203.37,163.64,198.89,125.07,191.87,112Z"/><path d="M318.22,153.92c-3.34-8.46-18.71-39.53-59.64-48.1-8.61-1.8-15.75-1.22-22.5,2.67-7.66,4.41-11.78,12.93-15,20.82-6.92,17.22-.13,42.63,1.41,52.58a114.26,114.26,0,0,1,.19,31.8c-0.88,7-6.1,12-9.58,18.24-11.77,21.27,7.1,24.26,13.62,19.2,7-5.4,9.79-14.31,9.89-23,0.2-16.65,1.15-10.51,9.91-6,11,5.67,28.61,6.86,36,5,16.9-4.28,24.67-11.08,36-33.19C325.94,178.32,321.1,161.21,318.22,153.92Zm-13,37.62c-5.34,16.42-27,22.15-38.68,21.51-6.26-.34-21-1.3-26.73-16.11-5.45-14-9.57-42.11-3.94-67.18,2.6-11.56,21-10.15,26.91-7.7C272.53,126.07,318.47,150.87,305.24,191.54Z"/></svg>